# xmcd
#
# Track frame offsets: 
#        150
#        4562
#        47340
#        66137
#        85092
#        111367
#        144497
#        170025
#        187810
#        203960
#        226042
#        245385
#
# Disc length: 4529 seconds
#
# Revision: 5
# Processed by: cddbd v1.5.2PL0 Copyright (c) Steve Scherf et al.
# Submitted via: ExactAudioCopy v1.0b1
#
DISCID=9211af0c
DTITLE=The Outlaws - Bring It Back Alive
DYEAR=1978
DGENRE=Southern Rock
TTITLE0=Intro (Relay Breakdown)*
TTITLE1=Stick Around For Rock and Roll
TTITLE2=Lover Boy
TTITLE3=There Goes Another Love Song
TTITLE4=Freeborn Man
TTITLE5=Prisoner
TTITLE6=I Hope You Don't Mind
TTITLE7=Song For You
TTITLE8=Cold And Lonesome
TTITLE9=Holiday
TTITLE10=Hurry Sundown
TTITLE11=Green Grass And High Tides
EXTD=
EXTT0=
EXTT1=
EXTT2=
EXTT3=
EXTT4=
EXTT5=
EXTT6=
EXTT7=
EXTT8=
EXTT9=
EXTT10=
EXTT11=
PLAYORDER=
